PathFileType	4	(X/Y/Z)	C:\Users\ebm\Documents\Erivelton\Erivelton2\wc7.trc
DataRate	CameraRate	NumFrames	NumMarkers	Units	OrigDataRate	OrigDataStartFrame	OrigNumFrames
150.00	150.00	      7	28	mm	150.00	422	      1125
Frame#	Time	IJ			PX			C7			T8			RAC			RAS			RPS			RAI			RPI			RLE			RME			RRS			RUS			R3M			R5M			LAC			LAS			LPS			LAI			LPI			LLE			LME			LRS			LUS			L3M			L5M			RW			LW			V_mid_elbow_r			V_mid_elbow_l			V_mid_wrist_r			V_mid_wrist_l			V_mid_trunk_low			V_mid_trunk_upp			
		X1	Y1	Z1	X2	Y2	Z2	X3	Y3	Z3	X4	Y4	Z4	X5	Y5	Z5	X6	Y6	Z6	X7	Y7	Z7	X8	Y8	Z8	X9	Y9	Z9	X10	Y10	Z10	X11	Y11	Z11	X12	Y12	Z12	X13	Y13	Z13	X14	Y14	Z14	X15	Y15	Z15	X16	Y16	Z16	X17	Y17	Z17	X18	Y18	Z18	X19	Y19	Z19	X20	Y20	Z20	X21	Y21	Z21	X22	Y22	Z22	X23	Y23	Z23	X24	Y24	Z24	X25	Y25	Z25	X26	Y26	Z26	X27	Y27	Z27	X28	Y28	Z28	

422	2.807							-1157.85095	1120.87122	-13.49211	-1270.03076	1001.60498	0.94002	-1097.39600	1046.82471	194.48053				-1216.34900	917.95929	279.15460	-1217.18213	824.29108	307.33069	-1259.95691	856.88348	309.47726	-1283.85242	792.23462	330.11273	-1315.04333	775.78912	256.47784	-1100.11401	597.03522	278.09564	-1139.12598	581.98987	325.18954	-1067.87732	526.70721	326.27850	-1106.54712	510.18375	332.36722	-1129.44238	1049.97925	-197.67859	-1237.71997	954.30634	-285.47220	-1271.88110	974.27582	-257.48352	-1288.23230	903.78052	-323.68170	-1329.33569	925.52448	-294.30829	-1348.09204	842.35229	-358.20248	-1391.54529	834.62811	-290.55957	-1245.21863	610.40002	-285.22281	-1273.79993	583.07312	-337.79657	-1195.22278	564.62885	-333.20206	-1226.46094	539.32452	-346.65088							
423	2.813							-1148.74536	1120.43250	-13.72767	-1261.20886	1001.68103	1.03098	-1087.53918	1046.39038	194.26305	-1165.00598	882.22101	273.82385	-1204.04834	915.23511	280.02588	-1203.46448	820.59241	306.39954	-1246.11169	852.80872	310.05695	-1270.11682	788.90656	330.48154	-1301.49890	772.55249	256.94617	-1085.05261	593.93488	277.22501	-1123.86755	579.08130	323.88913	-1053.94312	523.34064	325.80807	-1092.58435	507.22937	332.55698	-1119.92249	1049.33093	-198.57246	-1227.08435	953.86560	-286.63559	-1261.63977	973.74420	-259.00449	-1277.13477	903.77625	-325.83731	-1318.51721	925.13226	-296.60635	-1336.44385	842.00867	-361.31161	-1381.11755	834.74347	-294.25769	-1229.89026	612.01886	-286.19748	-1258.39941	584.15955	-338.21564	-1179.61633	564.48993	-333.32855	-1211.48230	539.93646	-346.90994							
424	2.820							-1139.59070	1119.99524	-13.92782	-1252.31396	1001.80676	0.95531	-1077.85205	1046.01624	193.87706	-1152.39526	880.05621	273.26788	-1191.71826	912.50568	280.87610	-1189.56628	817.24817	305.19360	-1232.43042	849.08069	310.62146	-1256.00500	785.57373	330.93649	-1287.90784	769.00171	257.71533	-1070.29260	590.85486	276.29236	-1108.35791	577.13690	322.60086	-1039.54895	519.84729	324.32169	-1078.98340	504.63672	332.75278	-1109.49414	1047.62830	-198.51622	-1216.35791	953.58948	-287.87158	-1251.40405	973.36359	-260.59909	-1265.87427	903.81360	-328.14655	-1307.57581	924.73767	-299.21780	-1324.79285	841.73523	-364.12744	-1370.52905	834.99701	-297.92926	-1214.86499	613.75372	-286.89728	-1242.49109	585.75885	-338.44290	-1164.01208	564.41162	-333.15521	-1196.51685	540.75946	-347.14554							
425	2.827							-1130.34277	1119.63782	-14.10129	-1243.44861	1001.96283	0.85686	-1068.08948	1045.48438	193.60303	-1139.56384	877.76086	272.61874	-1178.38806	908.98273	280.78885	-1175.59949	814.34088	304.72742	-1218.93152	845.72809	311.16852	-1241.51587	782.10718	331.45322	-1274.13074	765.08118	258.51337	-1055.59155	587.49976	275.09650	-1093.33606	574.91217	322.35782	-1025.82104	516.00739	323.97391	-1065.47302	501.79538	332.22632	-1100.02759	1047.39697	-199.26695	-1205.57776	953.36072	-289.10019	-1240.97583	972.78009	-262.24048	-1254.23572	903.81995	-330.47153	-1296.66638	924.23743	-302.08875	-1312.77478	841.23517	-366.84979	-1359.69312	835.09430	-301.62561	-1199.98303	615.12018	-287.21228	-1226.44568	587.41406	-338.95016	-1148.71716	563.85754	-333.25943	-1182.05713	541.31610	-347.58002							
426	2.833							-1121.10461	1119.38782	-14.19267	-1234.48035	1002.18787	0.70666	-1058.47119	1044.82056	193.38058	-1126.95703	875.58295	272.00061	-1166.04419	906.36725	281.25537	-1161.09680	811.70386	303.94086	-1205.10303	842.04340	311.53281	-1226.66675	778.46313	331.76895	-1260.11719	761.06738	259.16577	-1040.81274	583.85663	274.66415	-1078.58179	572.20129	322.34595	-1013.12396	511.90683	326.02393				-1090.17310	1046.69592	-199.49666	-1194.64038	953.15833	-290.19955	-1230.77930	972.38324	-264.14072	-1242.33765	903.45538	-332.79004	-1285.29089	923.34766	-304.84897	-1300.65210	840.54462	-369.40686	-1348.50903	834.82971	-305.19653	-1185.32092	615.88257	-287.43835	-1210.63574	588.55280	-339.34616	-1133.83215	562.79364	-333.68533	-1167.77112	541.34985	-347.91916							
427	2.840							-1111.80847	1119.22961	-14.17392	-1225.51587	1002.47644	0.60456	-1048.65552	1044.08911	193.12036	-1114.36731	873.54517	271.76654	-1153.74768	903.66608	281.64920	-1147.88086	808.97119	304.13910	-1191.97839	838.98584	312.04245	-1211.67004	774.60217	332.00208	-1246.01147	757.11462	259.56573	-1026.15637	580.06415	274.80438	-1063.77380	568.87653	322.59393	-999.24615	507.66678	326.26926	-1037.79919	494.89383	334.19629	-1080.04456	1045.76404	-199.16507	-1183.57825	952.65070	-291.42661	-1220.23596	971.63281	-266.11966	-1230.13660	902.76318	-334.97342	-1273.79565	922.27112	-307.83139	-1287.94531	839.29376	-371.60834	-1336.99426	834.08276	-308.50369	-1170.52222	616.19830	-287.63638	-1195.17224	588.85626	-339.91849	-1119.01099	561.38861	-334.19260	-1153.31482	540.91162	-348.33221				-1185.48889	295.04224	-317.92859	
428	2.847							-1102.48560	1119.16602	-14.04891	-1216.46033	1002.84277	0.52676	-1038.65356	1043.18579	192.95828	-1101.75635	871.55627	271.87366	-1141.52454	900.92188	281.89709	-1134.09607	806.36749	303.94458	-1178.36218	835.31793	312.18292	-1196.72412	770.65533	332.11362	-1231.64612	752.98914	260.11243	-1011.27539	575.81232	274.95724	-1049.00415	564.89471	322.70251	-985.59338	503.00458	327.05930				-1070.89966	1046.28674	-199.56900	-1172.40173	951.88867	-292.51135	-1209.69373	970.99530	-268.32571	-1217.82373	901.51312	-336.87314	-1262.09863	920.94189	-310.71692	-1275.16455	837.75183	-373.53662	-1325.09094	832.76166	-311.39334	-1155.41418	616.24933	-288.35663	-1179.97034	588.51971	-340.38721	-1104.01880	559.56903	-334.59787	-1138.94104	539.96320	-348.75085				-1177.74194	295.16187	-318.06784	
